<svg width="914" height="400" fill="none" xmlns="http://www.w3.org/2000/svg"><path fill="#fff" d="M0 0h914v400H0z"/><path d="M429.683 193.696c-1.12-.608-2.4-.992-3.776-.992-4.576 0-8.128 3.296-8.128 7.84 0 4.544 3.552 7.84 8.16 7.84 1.344 0 2.624-.384 3.744-.992V208h3.2v-22.4h-3.2v8.096Zm-3.744 11.648c-2.656 0-4.8-1.984-4.8-4.8 0-2.784 2.144-4.8 4.8-4.8 1.664 0 2.912.672 3.744 1.6v6.4c-.832.928-2.08 1.6-3.744 1.6Zm24.946-4.8c0-4.544-3.328-7.84-7.904-7.84-4.576 0-7.936 3.264-7.936 7.84 0 4.576 3.36 7.84 7.904 7.84 2.656 0 5.376-1.248 6.816-3.264l-2.56-1.792c-.832 1.184-2.56 2.048-4.256 2.048-2.24 0-3.936-1.408-4.384-3.584h12.256c.032-.224.064-.864.064-1.248Zm-12.256-1.632c.512-1.856 2.144-3.264 4.32-3.264 2.112 0 3.872 1.312 4.32 3.264h-8.64Zm17.995 15.68v-7.2c1.12.608 2.4.992 3.776.992 4.576 0 8.128-3.296 8.128-7.84 0-4.544-3.552-7.84-8.16-7.84-1.376 0-2.656.384-3.744.96v-.576h-3.2v21.504h3.2Zm3.744-9.248c-1.664 0-2.912-.672-3.744-1.6v-6.4c.832-.928 2.08-1.6 3.744-1.6 2.656 0 4.8 1.984 4.8 4.8 0 2.784-2.144 4.8-4.8 4.8ZM474.879 208c3.2 0 5.344-1.92 5.344-4.672 0-2.528-1.728-3.744-3.808-4.256l-1.664-.416c-.832-.224-1.344-.704-1.344-1.44 0-.704.608-1.28 1.408-1.28h4.256v-2.848h-4.256c-2.752 0-4.48 1.792-4.48 4.128 0 2.56 1.856 3.712 3.52 4.128l1.504.384c1.216.32 1.6.928 1.6 1.696 0 1.024-.928 1.696-2.08 1.696h-3.808V208h3.808Zm12.072 6.592 10.24-21.504h-3.648l-4.704 10.048-5.12-10.048h-3.616l6.944 13.792-3.68 7.712h3.584Z" fill="url(#depsy__a)"/><defs><linearGradient id="depsy__a" x1="423.5" y1="212" x2="496.5" y2="192.5" gradientUnits="userSpaceOnUse"><stop stop-color="#0C2B99"/><stop offset=".337" stop-color="#0C4D99"/><stop offset="1" stop-color="#0DDEFB"/></linearGradient></defs></svg>